<?xml version="1.0" encoding="UTF-8" standalone="no"?><svg xmlns="http://www.w3.org/2000/svg" xmlns:xlink="http://www.w3.org/1999/xlink" contentStyleType="text/css" height="1930px" preserveAspectRatio="none" style="width:835px;height:1930px;background:#FFFFFF;" version="1.1" viewBox="0 0 835 1930" width="835px" zoomAndPan="magnify"><defs/><g><rect fill="#F1F1F1" height="1908.6563" style="stroke:#181818;stroke-width:1.5;" width="813" x="11" y="11"/><text fill="#000000" font-family="sans-serif" font-size="14" lengthAdjust="spacing" textLength="54" x="390.5" y="25.9951">Pipeline</text><rect fill="#F1F1F1" height="228.2031" style="stroke:#181818;stroke-width:1.5;" width="167" x="334" y="47.2969"/><text fill="#000000" font-family="sans-serif" font-size="14" lengthAdjust="spacing" textLength="34" x="400.5" y="62.292">Build</text><rect fill="#F1F1F1" height="33.9688" rx="12.5" ry="12.5" style="stroke:#181818;stroke-width:0.5;" width="136" x="349.5" y="83.5938"/><text fill="#000000" font-family="sans-serif" font-size="12" lengthAdjust="spacing" textLength="116" x="359.5" y="104.7324">Clean and Compile</text><rect fill="#F1F1F1" height="33.9688" rx="12.5" ry="12.5" style="stroke:#181818;stroke-width:0.5;" width="147" x="344" y="152.5625"/><text fill="#000000" font-family="sans-serif" font-size="12" lengthAdjust="spacing" textLength="127" x="354" y="173.7012">Package Application</text><rect fill="#F1F1F1" height="33.9688" rx="12.5" ry="12.5" style="stroke:#181818;stroke-width:0.5;" width="112" x="361.5" y="221.5313"/><text fill="#000000" font-family="sans-serif" font-size="12" lengthAdjust="spacing" textLength="92" x="371.5" y="242.6699">Stash Artifacts</text><rect fill="#F1F1F1" height="90.2656" style="stroke:#181818;stroke-width:1.5;" width="192" x="321.5" y="310.5"/><text fill="#000000" font-family="sans-serif" font-size="14" lengthAdjust="spacing" textLength="138" x="348.5" y="325.4951">Static Code Analysis</text><rect fill="#F1F1F1" height="33.9688" rx="12.5" ry="12.5" style="stroke:#181818;stroke-width:0.5;" width="172" x="331.5" y="346.7969"/><text fill="#000000" font-family="sans-serif" font-size="12" lengthAdjust="spacing" textLength="152" x="341.5" y="367.9355">Run SonarQube Analysis</text><rect fill="#F1F1F1" height="90.2656" style="stroke:#181818;stroke-width:1.5;" width="230" x="302.5" y="435.7656"/><text fill="#000000" font-family="sans-serif" font-size="14" lengthAdjust="spacing" textLength="210" x="312.5" y="450.7607">Install Newman HTML Reporter</text><rect fill="#F1F1F1" height="33.9688" rx="12.5" ry="12.5" style="stroke:#181818;stroke-width:0.5;" width="152" x="341.5" y="472.0625"/><text fill="#000000" font-family="sans-serif" font-size="12" lengthAdjust="spacing" textLength="132" x="351.5" y="493.2012">Install HTML Reporter</text><rect fill="#F1F1F1" height="90.2656" style="stroke:#181818;stroke-width:1.5;" width="216" x="309.5" y="561.0313"/><text fill="#000000" font-family="sans-serif" font-size="14" lengthAdjust="spacing" textLength="196" x="319.5" y="576.0264">Start Spring Boot Application</text><rect fill="#F1F1F1" height="33.9688" rx="12.5" ry="12.5" style="stroke:#181818;stroke-width:0.5;" width="124" x="355.5" y="597.3281"/><text fill="#000000" font-family="sans-serif" font-size="12" lengthAdjust="spacing" textLength="104" x="365.5" y="618.4668">Start Application</text><rect fill="#F1F1F1" height="198.5625" style="stroke:#181818;stroke-width:1.5;" width="793" x="21" y="686.2969"/><text fill="#000000" font-family="sans-serif" font-size="14" lengthAdjust="spacing" textLength="52" x="391.5" y="701.292">Testing</text><rect fill="#555555" height="6" rx="2.5" ry="2.5" style="stroke:#555555;stroke-width:1.0;" width="773" x="31" y="722.5938"/><rect fill="#F1F1F1" height="90.2656" style="stroke:#181818;stroke-width:1.5;" width="131" x="45" y="748.5938"/><text fill="#000000" font-family="sans-serif" font-size="14" lengthAdjust="spacing" textLength="83" x="69" y="763.5889">Unit Testing</text><rect fill="#F1F1F1" height="33.9688" rx="12.5" ry="12.5" style="stroke:#181818;stroke-width:0.5;" width="111" x="55" y="784.8906"/><text fill="#000000" font-family="sans-serif" font-size="12" lengthAdjust="spacing" textLength="91" x="65" y="806.0293">Run Unit Tests</text><rect fill="#F1F1F1" height="90.2656" style="stroke:#181818;stroke-width:1.5;" width="208" x="204" y="748.5938"/><text fill="#000000" font-family="sans-serif" font-size="14" lengthAdjust="spacing" textLength="101" x="257.5" y="763.5889">Test Coverage</text><rect fill="#F1F1F1" height="33.9688" rx="12.5" ry="12.5" style="stroke:#181818;stroke-width:0.5;" width="188" x="214" y="784.8906"/><text fill="#000000" font-family="sans-serif" font-size="12" lengthAdjust="spacing" textLength="168" x="224" y="806.0293">Generate Coverage Report</text><rect fill="#F1F1F1" height="90.2656" style="stroke:#181818;stroke-width:1.5;" width="161" x="440" y="748.5938"/><text fill="#000000" font-family="sans-serif" font-size="14" lengthAdjust="spacing" textLength="116" x="462.5" y="763.5889">Mutation Testing</text><rect fill="#F1F1F1" height="33.9688" rx="12.5" ry="12.5" style="stroke:#181818;stroke-width:0.5;" width="141" x="450" y="784.8906"/><text fill="#000000" font-family="sans-serif" font-size="12" lengthAdjust="spacing" textLength="121" x="460" y="806.0293">Run Mutation Tests</text><rect fill="#F1F1F1" height="90.2656" style="stroke:#181818;stroke-width:1.5;" width="161" x="629" y="748.5938"/><text fill="#000000" font-family="sans-serif" font-size="14" lengthAdjust="spacing" textLength="106" x="656.5" y="763.5889">Service Testing</text><rect fill="#F1F1F1" height="33.9688" rx="12.5" ry="12.5" style="stroke:#181818;stroke-width:0.5;" width="141" x="639" y="784.8906"/><text fill="#000000" font-family="sans-serif" font-size="12" lengthAdjust="spacing" textLength="121" x="649" y="806.0293">Run Postman Tests</text><rect fill="#555555" height="6" rx="2.5" ry="2.5" style="stroke:#555555;stroke-width:1.0;" width="773" x="31" y="858.8594"/><rect fill="#F1F1F1" height="90.2656" style="stroke:#181818;stroke-width:1.5;" width="216" x="309.5" y="919.8594"/><text fill="#000000" font-family="sans-serif" font-size="14" lengthAdjust="spacing" textLength="196" x="319.5" y="934.8545">Stop Spring Boot Application</text><rect fill="#F1F1F1" height="33.9688" rx="12.5" ry="12.5" style="stroke:#181818;stroke-width:0.5;" width="122" x="356.5" y="956.1563"/><text fill="#000000" font-family="sans-serif" font-size="12" lengthAdjust="spacing" textLength="102" x="366.5" y="977.2949">Stop Application</text><rect fill="#F1F1F1" height="90.2656" style="stroke:#181818;stroke-width:1.5;" width="200" x="317.5" y="1045.125"/><text fill="#000000" font-family="sans-serif" font-size="14" lengthAdjust="spacing" textLength="123" x="356" y="1060.1201">Local Deployment</text><rect fill="#F1F1F1" height="33.9688" rx="12.5" ry="12.5" style="stroke:#181818;stroke-width:0.5;" width="180" x="327.5" y="1081.4219"/><text fill="#000000" font-family="sans-serif" font-size="12" lengthAdjust="spacing" textLength="160" x="337.5" y="1102.5605">Deploy Application Locally</text><rect fill="#F1F1F1" height="90.2656" style="stroke:#181818;stroke-width:1.5;" width="216" x="309.5" y="1170.3906"/><text fill="#000000" font-family="sans-serif" font-size="14" lengthAdjust="spacing" textLength="143" x="346" y="1185.3857">Remote Deployment</text><rect fill="#F1F1F1" height="33.9688" rx="12.5" ry="12.5" style="stroke:#181818;stroke-width:0.5;" width="196" x="319.5" y="1206.6875"/><text fill="#000000" font-family="sans-serif" font-size="12" lengthAdjust="spacing" textLength="176" x="329.5" y="1227.8262">Deploy Application Remotely</text><rect fill="#F1F1F1" height="90.2656" style="stroke:#181818;stroke-width:1.5;" width="250" x="292.5" y="1295.6563"/><text fill="#000000" font-family="sans-serif" font-size="14" lengthAdjust="spacing" textLength="230" x="302.5" y="1310.6514">Check Remote Application Status</text><rect fill="#F1F1F1" height="33.9688" rx="12.5" ry="12.5" style="stroke:#181818;stroke-width:0.5;" width="124" x="355.5" y="1331.9531"/><text fill="#000000" font-family="sans-serif" font-size="12" lengthAdjust="spacing" textLength="104" x="365.5" y="1353.0918">Check if Running</text><rect fill="#F1F1F1" height="90.2656" style="stroke:#181818;stroke-width:1.5;" width="230" x="302.5" y="1420.9219"/><text fill="#000000" font-family="sans-serif" font-size="14" lengthAdjust="spacing" textLength="210" x="312.5" y="1435.917">Check Local Application Status</text><rect fill="#F1F1F1" height="33.9688" rx="12.5" ry="12.5" style="stroke:#181818;stroke-width:0.5;" width="124" x="355.5" y="1457.2188"/><text fill="#000000" font-family="sans-serif" font-size="12" lengthAdjust="spacing" textLength="104" x="365.5" y="1478.3574">Check if Running</text><rect fill="#F1F1F1" height="90.2656" style="stroke:#181818;stroke-width:1.5;" width="178" x="328.5" y="1546.1875"/><text fill="#000000" font-family="sans-serif" font-size="14" lengthAdjust="spacing" textLength="150" x="342.5" y="1561.1826">Stop Local Application</text><rect fill="#F1F1F1" height="33.9688" rx="12.5" ry="12.5" style="stroke:#181818;stroke-width:0.5;" width="158" x="338.5" y="1582.4844"/><text fill="#000000" font-family="sans-serif" font-size="12" lengthAdjust="spacing" textLength="138" x="348.5" y="1603.623">Stop Local Application</text><rect fill="#F1F1F1" height="228.2031" style="stroke:#181818;stroke-width:1.5;" width="166" x="334.5" y="1671.4531"/><text fill="#000000" font-family="sans-serif" font-size="14" lengthAdjust="spacing" textLength="103" x="366" y="1686.4482">Report Results</text><rect fill="#F1F1F1" height="33.9688" rx="12.5" ry="12.5" style="stroke:#181818;stroke-width:0.5;" width="146" x="344.5" y="1707.75"/><text fill="#000000" font-family="sans-serif" font-size="12" lengthAdjust="spacing" textLength="126" x="354.5" y="1728.8887">Collect Test Reports</text><rect fill="#F1F1F1" height="33.9688" rx="12.5" ry="12.5" style="stroke:#181818;stroke-width:0.5;" width="121" x="357" y="1776.7188"/><text fill="#000000" font-family="sans-serif" font-size="12" lengthAdjust="spacing" textLength="101" x="367" y="1797.8574">Archive Artifacts</text><rect fill="#F1F1F1" height="33.9688" rx="12.5" ry="12.5" style="stroke:#181818;stroke-width:0.5;" width="118" x="358.5" y="1845.6875"/><text fill="#000000" font-family="sans-serif" font-size="12" lengthAdjust="spacing" textLength="98" x="368.5" y="1866.8262">Publish Reports</text><line style="stroke:#181818;stroke-width:1.0;" x1="417.5" x2="417.5" y1="117.5625" y2="152.5625"/><polygon fill="#181818" points="413.5,142.5625,417.5,152.5625,421.5,142.5625,417.5,146.5625" style="stroke:#181818;stroke-width:1.0;"/><line style="stroke:#181818;stroke-width:1.0;" x1="417.5" x2="417.5" y1="186.5313" y2="221.5313"/><polygon fill="#181818" points="413.5,211.5313,417.5,221.5313,421.5,211.5313,417.5,215.5313" style="stroke:#181818;stroke-width:1.0;"/><line style="stroke:#181818;stroke-width:1.0;" x1="417.5" x2="417.5" y1="255.5" y2="346.7969"/><polygon fill="#181818" points="413.5,336.7969,417.5,346.7969,421.5,336.7969,417.5,340.7969" style="stroke:#181818;stroke-width:1.0;"/><line style="stroke:#181818;stroke-width:1.0;" x1="417.5" x2="417.5" y1="380.7656" y2="472.0625"/><polygon fill="#181818" points="413.5,462.0625,417.5,472.0625,421.5,462.0625,417.5,466.0625" style="stroke:#181818;stroke-width:1.0;"/><line style="stroke:#181818;stroke-width:1.0;" x1="417.5" x2="417.5" y1="506.0313" y2="597.3281"/><polygon fill="#181818" points="413.5,587.3281,417.5,597.3281,421.5,587.3281,417.5,591.3281" style="stroke:#181818;stroke-width:1.0;"/><line style="stroke:#181818;stroke-width:1.0;" x1="110.5" x2="110.5" y1="728.5938" y2="784.8906"/><polygon fill="#181818" points="106.5,774.8906,110.5,784.8906,114.5,774.8906,110.5,778.8906" style="stroke:#181818;stroke-width:1.0;"/><line style="stroke:#181818;stroke-width:1.0;" x1="308" x2="308" y1="728.5938" y2="784.8906"/><polygon fill="#181818" points="304,774.8906,308,784.8906,312,774.8906,308,778.8906" style="stroke:#181818;stroke-width:1.0;"/><line style="stroke:#181818;stroke-width:1.0;" x1="520.5" x2="520.5" y1="728.5938" y2="784.8906"/><polygon fill="#181818" points="516.5,774.8906,520.5,784.8906,524.5,774.8906,520.5,778.8906" style="stroke:#181818;stroke-width:1.0;"/><line style="stroke:#181818;stroke-width:1.0;" x1="709.5" x2="709.5" y1="728.5938" y2="784.8906"/><polygon fill="#181818" points="705.5,774.8906,709.5,784.8906,713.5,774.8906,709.5,778.8906" style="stroke:#181818;stroke-width:1.0;"/><line style="stroke:#181818;stroke-width:1.0;" x1="110.5" x2="110.5" y1="818.8594" y2="858.8594"/><polygon fill="#181818" points="106.5,848.8594,110.5,858.8594,114.5,848.8594,110.5,852.8594" style="stroke:#181818;stroke-width:1.0;"/><line style="stroke:#181818;stroke-width:1.0;" x1="308" x2="308" y1="818.8594" y2="858.8594"/><polygon fill="#181818" points="304,848.8594,308,858.8594,312,848.8594,308,852.8594" style="stroke:#181818;stroke-width:1.0;"/><line style="stroke:#181818;stroke-width:1.0;" x1="520.5" x2="520.5" y1="818.8594" y2="858.8594"/><polygon fill="#181818" points="516.5,848.8594,520.5,858.8594,524.5,848.8594,520.5,852.8594" style="stroke:#181818;stroke-width:1.0;"/><line style="stroke:#181818;stroke-width:1.0;" x1="709.5" x2="709.5" y1="818.8594" y2="858.8594"/><polygon fill="#181818" points="705.5,848.8594,709.5,858.8594,713.5,848.8594,709.5,852.8594" style="stroke:#181818;stroke-width:1.0;"/><line style="stroke:#181818;stroke-width:1.0;" x1="417.5" x2="417.5" y1="631.2969" y2="722.5938"/><polygon fill="#181818" points="413.5,712.5938,417.5,722.5938,421.5,712.5938,417.5,716.5938" style="stroke:#181818;stroke-width:1.0;"/><line style="stroke:#181818;stroke-width:1.0;" x1="417.5" x2="417.5" y1="864.8594" y2="956.1563"/><polygon fill="#181818" points="413.5,946.1563,417.5,956.1563,421.5,946.1563,417.5,950.1563" style="stroke:#181818;stroke-width:1.0;"/><line style="stroke:#181818;stroke-width:1.0;" x1="417.5" x2="417.5" y1="990.125" y2="1081.4219"/><polygon fill="#181818" points="413.5,1071.4219,417.5,1081.4219,421.5,1071.4219,417.5,1075.4219" style="stroke:#181818;stroke-width:1.0;"/><line style="stroke:#181818;stroke-width:1.0;" x1="417.5" x2="417.5" y1="1115.3906" y2="1206.6875"/><polygon fill="#181818" points="413.5,1196.6875,417.5,1206.6875,421.5,1196.6875,417.5,1200.6875" style="stroke:#181818;stroke-width:1.0;"/><line style="stroke:#181818;stroke-width:1.0;" x1="417.5" x2="417.5" y1="1240.6563" y2="1331.9531"/><polygon fill="#181818" points="413.5,1321.9531,417.5,1331.9531,421.5,1321.9531,417.5,1325.9531" style="stroke:#181818;stroke-width:1.0;"/><line style="stroke:#181818;stroke-width:1.0;" x1="417.5" x2="417.5" y1="1365.9219" y2="1457.2188"/><polygon fill="#181818" points="413.5,1447.2188,417.5,1457.2188,421.5,1447.2188,417.5,1451.2188" style="stroke:#181818;stroke-width:1.0;"/><line style="stroke:#181818;stroke-width:1.0;" x1="417.5" x2="417.5" y1="1491.1875" y2="1582.4844"/><polygon fill="#181818" points="413.5,1572.4844,417.5,1582.4844,421.5,1572.4844,417.5,1576.4844" style="stroke:#181818;stroke-width:1.0;"/><line style="stroke:#181818;stroke-width:1.0;" x1="417.5" x2="417.5" y1="1741.7188" y2="1776.7188"/><polygon fill="#181818" points="413.5,1766.7188,417.5,1776.7188,421.5,1766.7188,417.5,1770.7188" style="stroke:#181818;stroke-width:1.0;"/><line style="stroke:#181818;stroke-width:1.0;" x1="417.5" x2="417.5" y1="1810.6875" y2="1845.6875"/><polygon fill="#181818" points="413.5,1835.6875,417.5,1845.6875,421.5,1835.6875,417.5,1839.6875" style="stroke:#181818;stroke-width:1.0;"/><line style="stroke:#181818;stroke-width:1.0;" x1="417.5" x2="417.5" y1="1616.4531" y2="1707.75"/><polygon fill="#181818" points="413.5,1697.75,417.5,1707.75,421.5,1697.75,417.5,1701.75" style="stroke:#181818;stroke-width:1.0;"/><!--MD5=[7a4dc1c7fc2257cc716c67a65e4accf3]
@startuml
rectangle Pipeline {
    rectangle "Build" {
        :Clean and Compile;
        :Package Application;
        :Stash Artifacts;
    }

    rectangle "Static Code Analysis" {
        :Run SonarQube Analysis;
    }

    rectangle "Install Newman HTML Reporter" {
        :Install HTML Reporter;
    }

    rectangle "Start Spring Boot Application" {
        :Start Application;
    }

    rectangle "Testing" {
        fork
            rectangle "Unit Testing" {
                :Run Unit Tests;
            }
        fork again
            rectangle "Test Coverage" {
                :Generate Coverage Report;
            }
        fork again
            rectangle "Mutation Testing" {
                :Run Mutation Tests;
            }
        fork again
            rectangle "Service Testing" {
                :Run Postman Tests;
            }
        end fork
    }

    rectangle "Stop Spring Boot Application" {
        :Stop Application;
    }

    rectangle "Local Deployment" {
        :Deploy Application Locally;
    }

    rectangle "Remote Deployment" {
        :Deploy Application Remotely;
    }

    rectangle "Check Remote Application Status" {
        :Check if Running;
    }

    rectangle "Check Local Application Status" {
        :Check if Running;
    }

    rectangle "Stop Local Application" {
        :Stop Local Application;
    }

    rectangle "Report Results" {
        :Collect Test Reports;
        :Archive Artifacts;
        :Publish Reports;
    }
}
@enduml

PlantUML version 1.2022.7(Mon Aug 22 17:01:30 UTC 2022)
(GPL source distribution)
Java Runtime: OpenJDK Runtime Environment
JVM: OpenJDK 64-Bit Server VM
Default Encoding: UTF-8
Language: en
Country: null
--></g></svg>