<?xml version="1.0" encoding="UTF-8" standalone="no"?><svg xmlns="http://www.w3.org/2000/svg" xmlns:xlink="http://www.w3.org/1999/xlink" contentStyleType="text/css" height="998px" preserveAspectRatio="none" style="width:675px;height:998px;background:#FFFFFF;" version="1.1" viewBox="0 0 675 998" width="675px" zoomAndPan="magnify"><defs/><g><ellipse cx="337.5" cy="20" fill="#222222" rx="10" ry="10" style="stroke:#222222;stroke-width:1.0;"/><rect fill="#F1F1F1" height="33.9688" rx="12.5" ry="12.5" style="stroke:#181818;stroke-width:0.5;" width="136" x="269.5" y="50"/><text fill="#000000" font-family="sans-serif" font-size="12" lengthAdjust="spacing" textLength="116" x="279.5" y="71.1387">Clean and Compile</text><rect fill="#F1F1F1" height="33.9688" rx="12.5" ry="12.5" style="stroke:#181818;stroke-width:0.5;" width="147" x="264" y="103.9688"/><text fill="#000000" font-family="sans-serif" font-size="12" lengthAdjust="spacing" textLength="127" x="274" y="125.1074">Package Application</text><rect fill="#F1F1F1" height="33.9688" rx="12.5" ry="12.5" style="stroke:#181818;stroke-width:0.5;" width="112" x="281.5" y="157.9375"/><text fill="#000000" font-family="sans-serif" font-size="12" lengthAdjust="spacing" textLength="92" x="291.5" y="179.0762">Stash Artifacts</text><rect fill="#F1F1F1" height="33.9688" rx="12.5" ry="12.5" style="stroke:#181818;stroke-width:0.5;" width="172" x="251.5" y="211.9063"/><text fill="#000000" font-family="sans-serif" font-size="12" lengthAdjust="spacing" textLength="152" x="261.5" y="233.0449">Run SonarQube Analysis</text><rect fill="#F1F1F1" height="33.9688" rx="12.5" ry="12.5" style="stroke:#181818;stroke-width:0.5;" width="152" x="261.5" y="265.875"/><text fill="#000000" font-family="sans-serif" font-size="12" lengthAdjust="spacing" textLength="132" x="271.5" y="287.0137">Install HTML Reporter</text><rect fill="#F1F1F1" height="33.9688" rx="12.5" ry="12.5" style="stroke:#181818;stroke-width:0.5;" width="124" x="275.5" y="319.8438"/><text fill="#000000" font-family="sans-serif" font-size="12" lengthAdjust="spacing" textLength="104" x="285.5" y="340.9824">Start Application</text><rect fill="#555555" height="6" rx="2.5" ry="2.5" style="stroke:#555555;stroke-width:1.0;" width="653" x="11" y="373.8125"/><rect fill="#F1F1F1" height="33.9688" rx="12.5" ry="12.5" style="stroke:#181818;stroke-width:0.5;" width="111" x="23" y="399.8125"/><text fill="#000000" font-family="sans-serif" font-size="12" lengthAdjust="spacing" textLength="91" x="33" y="420.9512">Run Unit Tests</text><rect fill="#F1F1F1" height="33.9688" rx="12.5" ry="12.5" style="stroke:#181818;stroke-width:0.5;" width="188" x="144" y="399.8125"/><text fill="#000000" font-family="sans-serif" font-size="12" lengthAdjust="spacing" textLength="168" x="154" y="420.9512">Generate Coverage Report</text><rect fill="#F1F1F1" height="33.9688" rx="12.5" ry="12.5" style="stroke:#181818;stroke-width:0.5;" width="141" x="360" y="399.8125"/><text fill="#000000" font-family="sans-serif" font-size="12" lengthAdjust="spacing" textLength="121" x="370" y="420.9512">Run Mutation Tests</text><rect fill="#F1F1F1" height="33.9688" rx="12.5" ry="12.5" style="stroke:#181818;stroke-width:0.5;" width="141" x="511" y="399.8125"/><text fill="#000000" font-family="sans-serif" font-size="12" lengthAdjust="spacing" textLength="121" x="521" y="420.9512">Run Postman Tests</text><rect fill="#555555" height="6" rx="2.5" ry="2.5" style="stroke:#555555;stroke-width:1.0;" width="653" x="11" y="453.7813"/><rect fill="#F1F1F1" height="33.9688" rx="12.5" ry="12.5" style="stroke:#181818;stroke-width:0.5;" width="122" x="276.5" y="479.7813"/><text fill="#000000" font-family="sans-serif" font-size="12" lengthAdjust="spacing" textLength="102" x="286.5" y="500.9199">Stop Application</text><rect fill="#F1F1F1" height="33.9688" rx="12.5" ry="12.5" style="stroke:#181818;stroke-width:0.5;" width="180" x="247.5" y="533.75"/><text fill="#000000" font-family="sans-serif" font-size="12" lengthAdjust="spacing" textLength="160" x="257.5" y="554.8887">Deploy Application Locally</text><rect fill="#F1F1F1" height="33.9688" rx="12.5" ry="12.5" style="stroke:#181818;stroke-width:0.5;" width="196" x="239.5" y="587.7188"/><text fill="#000000" font-family="sans-serif" font-size="12" lengthAdjust="spacing" textLength="176" x="249.5" y="608.8574">Deploy Application Remotely</text><rect fill="#F1F1F1" height="33.9688" rx="12.5" ry="12.5" style="stroke:#181818;stroke-width:0.5;" width="170" x="252.5" y="641.6875"/><text fill="#000000" font-family="sans-serif" font-size="12" lengthAdjust="spacing" textLength="150" x="262.5" y="662.8262">Check if Running (Local)</text><rect fill="#F1F1F1" height="33.9688" rx="12.5" ry="12.5" style="stroke:#181818;stroke-width:0.5;" width="186" x="244.5" y="695.6563"/><text fill="#000000" font-family="sans-serif" font-size="12" lengthAdjust="spacing" textLength="166" x="254.5" y="716.7949">Check if Running (Remote)</text><rect fill="#F1F1F1" height="33.9688" rx="12.5" ry="12.5" style="stroke:#181818;stroke-width:0.5;" width="158" x="258.5" y="749.625"/><text fill="#000000" font-family="sans-serif" font-size="12" lengthAdjust="spacing" textLength="138" x="268.5" y="770.7637">Stop Local Application</text><rect fill="#F1F1F1" height="33.9688" rx="12.5" ry="12.5" style="stroke:#181818;stroke-width:0.5;" width="146" x="264.5" y="803.5938"/><text fill="#000000" font-family="sans-serif" font-size="12" lengthAdjust="spacing" textLength="126" x="274.5" y="824.7324">Collect Test Reports</text><rect fill="#F1F1F1" height="33.9688" rx="12.5" ry="12.5" style="stroke:#181818;stroke-width:0.5;" width="121" x="277" y="857.5625"/><text fill="#000000" font-family="sans-serif" font-size="12" lengthAdjust="spacing" textLength="101" x="287" y="878.7012">Archive Artifacts</text><rect fill="#F1F1F1" height="33.9688" rx="12.5" ry="12.5" style="stroke:#181818;stroke-width:0.5;" width="118" x="278.5" y="911.5313"/><text fill="#000000" font-family="sans-serif" font-size="12" lengthAdjust="spacing" textLength="98" x="288.5" y="932.6699">Publish Reports</text><ellipse cx="337.5" cy="976.5" fill="none" rx="11" ry="11" style="stroke:#222222;stroke-width:1.0;"/><ellipse cx="337.5" cy="976.5" fill="#222222" rx="6" ry="6" style="stroke:#111111;stroke-width:1.0;"/><line style="stroke:#181818;stroke-width:1.0;" x1="337.5" x2="337.5" y1="30" y2="50"/><polygon fill="#181818" points="333.5,40,337.5,50,341.5,40,337.5,44" style="stroke:#181818;stroke-width:1.0;"/><line style="stroke:#181818;stroke-width:1.0;" x1="337.5" x2="337.5" y1="83.9688" y2="103.9688"/><polygon fill="#181818" points="333.5,93.9688,337.5,103.9688,341.5,93.9688,337.5,97.9688" style="stroke:#181818;stroke-width:1.0;"/><line style="stroke:#181818;stroke-width:1.0;" x1="337.5" x2="337.5" y1="137.9375" y2="157.9375"/><polygon fill="#181818" points="333.5,147.9375,337.5,157.9375,341.5,147.9375,337.5,151.9375" style="stroke:#181818;stroke-width:1.0;"/><line style="stroke:#181818;stroke-width:1.0;" x1="337.5" x2="337.5" y1="191.9063" y2="211.9063"/><polygon fill="#181818" points="333.5,201.9063,337.5,211.9063,341.5,201.9063,337.5,205.9063" style="stroke:#181818;stroke-width:1.0;"/><line style="stroke:#181818;stroke-width:1.0;" x1="337.5" x2="337.5" y1="245.875" y2="265.875"/><polygon fill="#181818" points="333.5,255.875,337.5,265.875,341.5,255.875,337.5,259.875" style="stroke:#181818;stroke-width:1.0;"/><line style="stroke:#181818;stroke-width:1.0;" x1="337.5" x2="337.5" y1="299.8438" y2="319.8438"/><polygon fill="#181818" points="333.5,309.8438,337.5,319.8438,341.5,309.8438,337.5,313.8438" style="stroke:#181818;stroke-width:1.0;"/><line style="stroke:#181818;stroke-width:1.0;" x1="78.5" x2="78.5" y1="379.8125" y2="399.8125"/><polygon fill="#181818" points="74.5,389.8125,78.5,399.8125,82.5,389.8125,78.5,393.8125" style="stroke:#181818;stroke-width:1.0;"/><line style="stroke:#181818;stroke-width:1.0;" x1="238" x2="238" y1="379.8125" y2="399.8125"/><polygon fill="#181818" points="234,389.8125,238,399.8125,242,389.8125,238,393.8125" style="stroke:#181818;stroke-width:1.0;"/><line style="stroke:#181818;stroke-width:1.0;" x1="430.5" x2="430.5" y1="379.8125" y2="399.8125"/><polygon fill="#181818" points="426.5,389.8125,430.5,399.8125,434.5,389.8125,430.5,393.8125" style="stroke:#181818;stroke-width:1.0;"/><line style="stroke:#181818;stroke-width:1.0;" x1="581.5" x2="581.5" y1="379.8125" y2="399.8125"/><polygon fill="#181818" points="577.5,389.8125,581.5,399.8125,585.5,389.8125,581.5,393.8125" style="stroke:#181818;stroke-width:1.0;"/><line style="stroke:#181818;stroke-width:1.0;" x1="78.5" x2="78.5" y1="433.7813" y2="453.7813"/><polygon fill="#181818" points="74.5,443.7813,78.5,453.7813,82.5,443.7813,78.5,447.7813" style="stroke:#181818;stroke-width:1.0;"/><line style="stroke:#181818;stroke-width:1.0;" x1="238" x2="238" y1="433.7813" y2="453.7813"/><polygon fill="#181818" points="234,443.7813,238,453.7813,242,443.7813,238,447.7813" style="stroke:#181818;stroke-width:1.0;"/><line style="stroke:#181818;stroke-width:1.0;" x1="430.5" x2="430.5" y1="433.7813" y2="453.7813"/><polygon fill="#181818" points="426.5,443.7813,430.5,453.7813,434.5,443.7813,430.5,447.7813" style="stroke:#181818;stroke-width:1.0;"/><line style="stroke:#181818;stroke-width:1.0;" x1="581.5" x2="581.5" y1="433.7813" y2="453.7813"/><polygon fill="#181818" points="577.5,443.7813,581.5,453.7813,585.5,443.7813,581.5,447.7813" style="stroke:#181818;stroke-width:1.0;"/><line style="stroke:#181818;stroke-width:1.0;" x1="337.5" x2="337.5" y1="353.8125" y2="373.8125"/><polygon fill="#181818" points="333.5,363.8125,337.5,373.8125,341.5,363.8125,337.5,367.8125" style="stroke:#181818;stroke-width:1.0;"/><line style="stroke:#181818;stroke-width:1.0;" x1="337.5" x2="337.5" y1="459.7813" y2="479.7813"/><polygon fill="#181818" points="333.5,469.7813,337.5,479.7813,341.5,469.7813,337.5,473.7813" style="stroke:#181818;stroke-width:1.0;"/><line style="stroke:#181818;stroke-width:1.0;" x1="337.5" x2="337.5" y1="513.75" y2="533.75"/><polygon fill="#181818" points="333.5,523.75,337.5,533.75,341.5,523.75,337.5,527.75" style="stroke:#181818;stroke-width:1.0;"/><line style="stroke:#181818;stroke-width:1.0;" x1="337.5" x2="337.5" y1="567.7188" y2="587.7188"/><polygon fill="#181818" points="333.5,577.7188,337.5,587.7188,341.5,577.7188,337.5,581.7188" style="stroke:#181818;stroke-width:1.0;"/><line style="stroke:#181818;stroke-width:1.0;" x1="337.5" x2="337.5" y1="621.6875" y2="641.6875"/><polygon fill="#181818" points="333.5,631.6875,337.5,641.6875,341.5,631.6875,337.5,635.6875" style="stroke:#181818;stroke-width:1.0;"/><line style="stroke:#181818;stroke-width:1.0;" x1="337.5" x2="337.5" y1="675.6563" y2="695.6563"/><polygon fill="#181818" points="333.5,685.6563,337.5,695.6563,341.5,685.6563,337.5,689.6563" style="stroke:#181818;stroke-width:1.0;"/><line style="stroke:#181818;stroke-width:1.0;" x1="337.5" x2="337.5" y1="729.625" y2="749.625"/><polygon fill="#181818" points="333.5,739.625,337.5,749.625,341.5,739.625,337.5,743.625" style="stroke:#181818;stroke-width:1.0;"/><line style="stroke:#181818;stroke-width:1.0;" x1="337.5" x2="337.5" y1="783.5938" y2="803.5938"/><polygon fill="#181818" points="333.5,793.5938,337.5,803.5938,341.5,793.5938,337.5,797.5938" style="stroke:#181818;stroke-width:1.0;"/><line style="stroke:#181818;stroke-width:1.0;" x1="337.5" x2="337.5" y1="837.5625" y2="857.5625"/><polygon fill="#181818" points="333.5,847.5625,337.5,857.5625,341.5,847.5625,337.5,851.5625" style="stroke:#181818;stroke-width:1.0;"/><line style="stroke:#181818;stroke-width:1.0;" x1="337.5" x2="337.5" y1="891.5313" y2="911.5313"/><polygon fill="#181818" points="333.5,901.5313,337.5,911.5313,341.5,901.5313,337.5,905.5313" style="stroke:#181818;stroke-width:1.0;"/><line style="stroke:#181818;stroke-width:1.0;" x1="337.5" x2="337.5" y1="945.5" y2="965.5"/><polygon fill="#181818" points="333.5,955.5,337.5,965.5,341.5,955.5,337.5,959.5" style="stroke:#181818;stroke-width:1.0;"/><!--MD5=[8ada87e525101e8d1e470ca2e4aae679]
@startuml
start
:Clean and Compile;
:Package Application;
:Stash Artifacts;
:Run SonarQube Analysis;
:Install HTML Reporter;
:Start Application;
fork
    :Run Unit Tests;
fork again
    :Generate Coverage Report;
fork again
    :Run Mutation Tests;
fork again
    :Run Postman Tests;
end fork
:Stop Application;
:Deploy Application Locally;
:Deploy Application Remotely;
:Check if Running (Local);
:Check if Running (Remote);
:Stop Local Application;
:Collect Test Reports;
:Archive Artifacts;
:Publish Reports;
stop
@enduml

PlantUML version 1.2022.7(Mon Aug 22 17:01:30 UTC 2022)
(GPL source distribution)
Java Runtime: OpenJDK Runtime Environment
JVM: OpenJDK 64-Bit Server VM
Default Encoding: UTF-8
Language: en
Country: null
--></g></svg>